# xmcd
#
# Track frame offsets:
#	150
#	7060
#	24352
#	38307
#	56912
#	78800
#	79967
#	94380
#	114840
#	128432
#	145725
#	165985
#
# Disc length: 2430 seconds
#
# Revision: 0
# Processed by: cddbd v1.5.2PL0 Copyright (c) Steve Scherf et al.
# Submitted via: EasyCDDAExtractor 2010.4.0.0
#
DISCID=83097c0c
DTITLE=Dave Soldier - She's Lightning When She Smiles
DYEAR=1996
DGENRE=Blues
TTITLE0=Another Man Done Gone
TTITLE1=Future Blues
TTITLE2=Clouds In My Hearth
TTITLE3=Black Snake Moan
TTITLE4=Prelude
TTITLE5=Bobby Radcliff Intro
TTITLE6=Moanin' At Midnight
TTITLE7=Uncloudy Day
TTITLE8=Moon and Stars
TTITLE9=Sugar Momma
TTITLE10=Somebody Help Poor Me
TTITLE11=Cypress Grove
EXTD=
EXTT0=
EXTT1=
EXTT2=
EXTT3=
EXTT4=
EXTT5=
EXTT6=
EXTT7=
EXTT8=
EXTT9=
EXTT10=
EXTT11=
PLAYORDER=
